<mxfile host="app.diagrams.net" modified="2021-08-26T11:16:39.348Z" agent="5.0 (Macintosh; Intel Mac OS X 10_15_7) AppleWebKit/537.36 (KHTML, like Gecko) Chrome/92.0.4515.159 Safari/537.36" etag="lNcqwyaLedIiOXHmj0Bz" version="14.9.9" type="github">
  <diagram id="P343dZp7T-6IgL0GNXL0" name="第 1 页">
    <mxGraphModel dx="2208" dy="769" grid="1" gridSize="10" guides="1" tooltips="1" connect="1" arrows="1" fold="1" page="1" pageScale="1" pageWidth="827" pageHeight="1169" math="0" shadow="0">
      <root>
        <mxCell id="0" />
        <mxCell id="1" parent="0" />
        <mxCell id="tso4i_eMz35XOaHtk0zO-8" style="edgeStyle=orthogonalEdgeStyle;rounded=0;orthogonalLoop=1;jettySize=auto;html=1;" edge="1" parent="1" source="tso4i_eMz35XOaHtk0zO-2">
          <mxGeometry relative="1" as="geometry">
            <mxPoint x="270" y="430" as="targetPoint" />
          </mxGeometry>
        </mxCell>
        <mxCell id="tso4i_eMz35XOaHtk0zO-2" value="Survicate" style="ellipse;whiteSpace=wrap;html=1;" vertex="1" parent="1">
          <mxGeometry y="390" width="120" height="80" as="geometry" />
        </mxCell>
        <mxCell id="tso4i_eMz35XOaHtk0zO-3" value="RTA" style="ellipse;whiteSpace=wrap;html=1;" vertex="1" parent="1">
          <mxGeometry x="690" y="380" width="120" height="80" as="geometry" />
        </mxCell>
        <mxCell id="tso4i_eMz35XOaHtk0zO-4" value="boolean Flag: hasShowDialogInThisSession = false" style="rounded=0;whiteSpace=wrap;html=1;" vertex="1" parent="1">
          <mxGeometry x="280" y="360" width="210" height="210" as="geometry" />
        </mxCell>
        <mxCell id="tso4i_eMz35XOaHtk0zO-9" value="1,Get Value" style="text;html=1;align=center;verticalAlign=middle;resizable=0;points=[];autosize=1;strokeColor=#666666;fillColor=#f5f5f5;fontColor=#333333;" vertex="1" parent="1">
          <mxGeometry x="160" y="400" width="80" height="20" as="geometry" />
        </mxCell>
        <mxCell id="tso4i_eMz35XOaHtk0zO-13" value="" style="endArrow=classic;html=1;" edge="1" parent="1">
          <mxGeometry width="50" height="50" relative="1" as="geometry">
            <mxPoint x="260" y="520" as="sourcePoint" />
            <mxPoint x="110" y="560" as="targetPoint" />
          </mxGeometry>
        </mxCell>
        <mxCell id="tso4i_eMz35XOaHtk0zO-14" value="2,Return Value" style="text;html=1;align=center;verticalAlign=middle;resizable=0;points=[];autosize=1;strokeColor=#666666;fillColor=#f5f5f5;fontColor=#333333;" vertex="1" parent="1">
          <mxGeometry x="135" y="510" width="90" height="20" as="geometry" />
        </mxCell>
        <mxCell id="tso4i_eMz35XOaHtk0zO-18" style="edgeStyle=orthogonalEdgeStyle;rounded=0;orthogonalLoop=1;jettySize=auto;html=1;" edge="1" parent="1" source="tso4i_eMz35XOaHtk0zO-15">
          <mxGeometry relative="1" as="geometry">
            <mxPoint x="-80" y="560" as="targetPoint" />
          </mxGeometry>
        </mxCell>
        <mxCell id="tso4i_eMz35XOaHtk0zO-21" style="edgeStyle=orthogonalEdgeStyle;rounded=0;orthogonalLoop=1;jettySize=auto;html=1;entryX=0.5;entryY=0;entryDx=0;entryDy=0;" edge="1" parent="1" source="tso4i_eMz35XOaHtk0zO-15" target="tso4i_eMz35XOaHtk0zO-20">
          <mxGeometry relative="1" as="geometry" />
        </mxCell>
        <mxCell id="tso4i_eMz35XOaHtk0zO-15" value="hasShow?" style="rhombus;whiteSpace=wrap;html=1;" vertex="1" parent="1">
          <mxGeometry x="30" y="520" width="80" height="80" as="geometry" />
        </mxCell>
        <mxCell id="tso4i_eMz35XOaHtk0zO-16" value="Not send Evnet track and Screen Name to Survicate." style="rounded=0;whiteSpace=wrap;html=1;" vertex="1" parent="1">
          <mxGeometry x="-210" y="525" width="120" height="60" as="geometry" />
        </mxCell>
        <mxCell id="tso4i_eMz35XOaHtk0zO-19" value="3,Yes" style="text;html=1;align=center;verticalAlign=middle;resizable=0;points=[];autosize=1;strokeColor=#666666;fillColor=#f5f5f5;fontColor=#333333;" vertex="1" parent="1">
          <mxGeometry x="-45" y="540" width="50" height="20" as="geometry" />
        </mxCell>
        <mxCell id="tso4i_eMz35XOaHtk0zO-20" value="Send Evnet track and Screen Name to Survicate." style="rounded=0;whiteSpace=wrap;html=1;" vertex="1" parent="1">
          <mxGeometry x="10" y="650" width="120" height="60" as="geometry" />
        </mxCell>
        <mxCell id="tso4i_eMz35XOaHtk0zO-22" value="3,No" style="text;html=1;align=center;verticalAlign=middle;resizable=0;points=[];autosize=1;strokeColor=#666666;fillColor=#f5f5f5;fontColor=#333333;" vertex="1" parent="1">
          <mxGeometry x="70" y="610" width="40" height="20" as="geometry" />
        </mxCell>
        <mxCell id="tso4i_eMz35XOaHtk0zO-24" value="Display" style="rounded=0;whiteSpace=wrap;html=1;" vertex="1" parent="1">
          <mxGeometry y="190" width="120" height="60" as="geometry" />
        </mxCell>
        <mxCell id="tso4i_eMz35XOaHtk0zO-25" value="" style="endArrow=classic;html=1;entryX=0.5;entryY=1;entryDx=0;entryDy=0;exitX=0.5;exitY=0;exitDx=0;exitDy=0;" edge="1" parent="1" source="tso4i_eMz35XOaHtk0zO-2" target="tso4i_eMz35XOaHtk0zO-24">
          <mxGeometry width="50" height="50" relative="1" as="geometry">
            <mxPoint x="210" y="450" as="sourcePoint" />
            <mxPoint x="260" y="400" as="targetPoint" />
          </mxGeometry>
        </mxCell>
        <mxCell id="tso4i_eMz35XOaHtk0zO-26" value="" style="endArrow=classic;html=1;" edge="1" parent="1">
          <mxGeometry width="50" height="50" relative="1" as="geometry">
            <mxPoint x="130" y="250" as="sourcePoint" />
            <mxPoint x="260" y="380" as="targetPoint" />
          </mxGeometry>
        </mxCell>
        <mxCell id="tso4i_eMz35XOaHtk0zO-27" value="2,Set Value to true." style="text;html=1;align=center;verticalAlign=middle;resizable=0;points=[];autosize=1;strokeColor=#6c8ebf;fillColor=#dae8fc;" vertex="1" parent="1">
          <mxGeometry x="160" y="260" width="120" height="20" as="geometry" />
        </mxCell>
        <mxCell id="tso4i_eMz35XOaHtk0zO-28" value="1,Need Display" style="text;html=1;align=center;verticalAlign=middle;resizable=0;points=[];autosize=1;strokeColor=#6c8ebf;fillColor=#dae8fc;" vertex="1" parent="1">
          <mxGeometry x="-35" y="300" width="100" height="20" as="geometry" />
        </mxCell>
        <mxCell id="tso4i_eMz35XOaHtk0zO-29" value="" style="endArrow=classic;html=1;entryX=1.005;entryY=0.29;entryDx=0;entryDy=0;entryPerimeter=0;exitX=0;exitY=0.5;exitDx=0;exitDy=0;" edge="1" parent="1" source="tso4i_eMz35XOaHtk0zO-3" target="tso4i_eMz35XOaHtk0zO-4">
          <mxGeometry width="50" height="50" relative="1" as="geometry">
            <mxPoint x="350" y="450" as="sourcePoint" />
            <mxPoint x="400" y="400" as="targetPoint" />
          </mxGeometry>
        </mxCell>
        <mxCell id="tso4i_eMz35XOaHtk0zO-30" value="1,Get Value" style="text;html=1;align=center;verticalAlign=middle;resizable=0;points=[];autosize=1;strokeColor=#d79b00;fillColor=#ffe6cc;" vertex="1" parent="1">
          <mxGeometry x="550" y="400" width="80" height="20" as="geometry" />
        </mxCell>
        <mxCell id="tso4i_eMz35XOaHtk0zO-31" value="hasShow?" style="rhombus;whiteSpace=wrap;html=1;" vertex="1" parent="1">
          <mxGeometry x="710" y="525" width="80" height="80" as="geometry" />
        </mxCell>
        <mxCell id="tso4i_eMz35XOaHtk0zO-32" value="" style="endArrow=classic;html=1;exitX=1;exitY=0.5;exitDx=0;exitDy=0;" edge="1" parent="1" source="tso4i_eMz35XOaHtk0zO-4">
          <mxGeometry width="50" height="50" relative="1" as="geometry">
            <mxPoint x="350" y="450" as="sourcePoint" />
            <mxPoint x="740" y="520" as="targetPoint" />
          </mxGeometry>
        </mxCell>
        <mxCell id="tso4i_eMz35XOaHtk0zO-33" value="2,Return Value" style="text;html=1;align=center;verticalAlign=middle;resizable=0;points=[];autosize=1;strokeColor=#d79b00;fillColor=#ffe6cc;" vertex="1" parent="1">
          <mxGeometry x="590" y="470" width="90" height="20" as="geometry" />
        </mxCell>
        <mxCell id="tso4i_eMz35XOaHtk0zO-34" value="Show RTA" style="rounded=0;whiteSpace=wrap;html=1;" vertex="1" parent="1">
          <mxGeometry x="540" y="630" width="120" height="60" as="geometry" />
        </mxCell>
        <mxCell id="tso4i_eMz35XOaHtk0zO-35" value="" style="endArrow=classic;html=1;" edge="1" parent="1">
          <mxGeometry width="50" height="50" relative="1" as="geometry">
            <mxPoint x="730" y="590" as="sourcePoint" />
            <mxPoint x="660" y="650" as="targetPoint" />
          </mxGeometry>
        </mxCell>
        <mxCell id="tso4i_eMz35XOaHtk0zO-36" value="" style="endArrow=classic;html=1;" edge="1" parent="1">
          <mxGeometry width="50" height="50" relative="1" as="geometry">
            <mxPoint x="530" y="640" as="sourcePoint" />
            <mxPoint x="480" y="580" as="targetPoint" />
          </mxGeometry>
        </mxCell>
        <mxCell id="tso4i_eMz35XOaHtk0zO-37" value="4,Set Value to true" style="text;html=1;align=center;verticalAlign=middle;resizable=0;points=[];autosize=1;strokeColor=#d79b00;fillColor=#ffe6cc;" vertex="1" parent="1">
          <mxGeometry x="430" y="610" width="110" height="20" as="geometry" />
        </mxCell>
        <mxCell id="tso4i_eMz35XOaHtk0zO-38" value="3,No" style="text;html=1;align=center;verticalAlign=middle;resizable=0;points=[];autosize=1;strokeColor=#d79b00;fillColor=#ffe6cc;" vertex="1" parent="1">
          <mxGeometry x="655" y="600" width="40" height="20" as="geometry" />
        </mxCell>
        <mxCell id="tso4i_eMz35XOaHtk0zO-41" value="Not Show RTA" style="rounded=0;whiteSpace=wrap;html=1;" vertex="1" parent="1">
          <mxGeometry x="770" y="650" width="120" height="60" as="geometry" />
        </mxCell>
        <mxCell id="tso4i_eMz35XOaHtk0zO-42" value="" style="endArrow=classic;html=1;entryX=0.5;entryY=0;entryDx=0;entryDy=0;" edge="1" parent="1" target="tso4i_eMz35XOaHtk0zO-41">
          <mxGeometry width="50" height="50" relative="1" as="geometry">
            <mxPoint x="780" y="590" as="sourcePoint" />
            <mxPoint x="400" y="400" as="targetPoint" />
          </mxGeometry>
        </mxCell>
        <mxCell id="tso4i_eMz35XOaHtk0zO-43" value="3,Yes" style="text;html=1;align=center;verticalAlign=middle;resizable=0;points=[];autosize=1;strokeColor=#d79b00;fillColor=#ffe6cc;" vertex="1" parent="1">
          <mxGeometry x="785" y="590" width="50" height="20" as="geometry" />
        </mxCell>
        <mxCell id="tso4i_eMz35XOaHtk0zO-46" value="&lt;font style=&quot;font-size: 15px&quot;&gt;1,在一个session只显示一次survicate或者RTA.&lt;br&gt;2,如果先显示RTA则不显示Survicate.&lt;br&gt;3,如果先先生Survicate,则不现实RTA&lt;br&gt;4,RTA 包括用户手动点击的rating dialog.&lt;/font&gt;" style="shape=note;whiteSpace=wrap;html=1;backgroundOutline=1;darkOpacity=0.05;" vertex="1" parent="1">
          <mxGeometry x="160" y="740" width="340" height="160" as="geometry" />
        </mxCell>
      </root>
    </mxGraphModel>
  </diagram>
</mxfile>
